<?xml version="1.0" encoding="utf-8"?>
<!-- Generator: Adobe Illustrator 20.1.0, SVG Export Plug-In . SVG Version: 6.00 Build 0)  -->
<svg version="1.1" id="Layer_1" xmlns="http://www.w3.org/2000/svg" xmlns:xlink="http://www.w3.org/1999/xlink" x="0px" y="0px"
	 viewBox="0 0 285.3 39.9" style="enable-background:new 0 0 285.3 39.9;" xml:space="preserve">
<style type="text/css">
	.st0{fill:#C0BFBF;}
	.st1{fill:#5765AE;}
	.st2{fill:#82C565;}
	.st3{fill:#F04D46;}
	.st4{fill:#FCB345;}
	.st5{fill:#D66FAB;}
</style>
<g>
	<path class="st0" d="M58.7,28.9h0.5c1.2,0,1.8-0.6,1.8-1.7V20c0-0.5-0.2-0.9-0.5-1.2c-0.3-0.3-0.7-0.4-1.3-0.4h-0.5v-5.2h7.1
		l0.3,2.9c0.9-1.2,2.1-2.1,3.4-2.7c1.4-0.6,2.9-0.9,4.6-0.9c2.3,0,4.2,0.9,5.7,2.7c0.8-1,1.7-1.6,2.7-2c1-0.4,2.2-0.6,3.6-0.6
		c2.6,0,4.5,0.6,5.6,1.9c1.2,1.2,1.7,3.1,1.7,5.5v7.4c0,1.1,0.6,1.7,1.8,1.7h0.8V34H85.5V19.9c0-0.9-0.2-1.6-0.6-2
		c-0.4-0.4-0.9-0.6-1.7-0.6c-0.8,0-1.4,0.2-1.8,0.6c-0.4,0.4-0.6,1-0.6,1.9v7.4c0,0.6,0.1,1,0.3,1.2c0.2,0.3,0.6,0.4,1.2,0.4h0.7V34
		h-9.6V19.9c0-0.9-0.2-1.6-0.6-2c-0.4-0.4-0.9-0.6-1.7-0.6c-0.8,0-1.4,0.2-1.8,0.6c-0.4,0.4-0.6,1.1-0.6,2v7.3
		c0,1.1,0.5,1.7,1.4,1.7h0.6V34H58.7V28.9z"/>
	<path class="st0" d="M99.9,32.9c-1.2-1.3-1.8-3.1-1.8-5.5v-7.4c0-1.1-0.6-1.7-1.8-1.7h-0.8v-5.1h10.8v14.2c0,0.9,0.2,1.6,0.6,2
		c0.4,0.4,0.9,0.6,1.7,0.6c0.8,0,1.4-0.2,1.8-0.6c0.4-0.4,0.6-1.1,0.6-2v-7.4c0-0.6-0.1-1-0.3-1.2c-0.2-0.3-0.5-0.4-1.1-0.4h-0.7
		v-5.1H119v14.1c0,1.1,0.6,1.7,1.8,1.7h0.4V34H114l-0.3-2.7c-1.1,1.2-2.3,2.1-3.5,2.6c-1.2,0.5-2.7,0.8-4.5,0.8
		C103,34.7,101.1,34.1,99.9,32.9z"/>
	<path class="st0" d="M122.1,28.9h0.9c0.6,0,1.1-0.1,1.4-0.4c0.3-0.3,0.4-0.7,0.4-1.3V12c0-1.1-0.6-1.7-1.8-1.7h-0.9V5.2H133v22
		c0,1.1,0.6,1.7,1.8,1.7h0.9V34h-13.6V28.9z"/>
	<path class="st0" d="M141.7,32.7c-1.6-1.3-2.4-3.2-2.4-5.7v-9h-3.1v-4.9h3.1V9l8.1-2.1v6.2h5.4V18h-5.4v9.8c0,0.8,0.2,1.3,0.5,1.6
		c0.3,0.3,0.8,0.5,1.5,0.5c0.8,0,1.5-0.2,2-0.7v-1.8h6.5v4.4c-2.6,2-5.5,3-8.9,3C145.7,34.7,143.3,34,141.7,32.7z"/>
	<path class="st0" d="M157.4,28.9h0.9c0.6,0,1.1-0.1,1.4-0.4c0.3-0.3,0.4-0.7,0.4-1.3V20c0-1.1-0.6-1.7-1.8-1.7h-0.9v-5.2h10.9v14.1
		c0,1.1,0.6,1.7,1.8,1.7h0.9V34h-13.6V28.9z M160.1,4.5h8.2v5.9h-8.2V4.5z"/>
	<path class="st1" d="M171.9,28.9h0.5c1.2,0,1.8-0.6,1.8-1.7V20c0-0.5-0.2-0.9-0.5-1.2c-0.3-0.3-0.7-0.4-1.3-0.4h-0.5v-5.2h7.1
		l0.3,2.9c0.9-1.2,2.1-2.1,3.4-2.7c1.4-0.6,2.9-0.9,4.6-0.9c2.3,0,4.2,0.9,5.7,2.7c0.8-1,1.7-1.6,2.7-2c1-0.4,2.2-0.6,3.6-0.6
		c2.6,0,4.5,0.6,5.6,1.9c1.2,1.2,1.7,3.1,1.7,5.5v7.4c0,1.1,0.6,1.7,1.8,1.7h0.8V34h-10.5V19.9c0-0.9-0.2-1.6-0.6-2
		c-0.4-0.4-0.9-0.6-1.7-0.6c-0.8,0-1.4,0.2-1.8,0.6c-0.4,0.4-0.6,1-0.6,1.9v7.4c0,0.6,0.1,1,0.3,1.2c0.2,0.3,0.6,0.4,1.2,0.4h0.7V34
		h-9.6V19.9c0-0.9-0.2-1.6-0.6-2c-0.4-0.4-0.9-0.6-1.7-0.6c-0.8,0-1.4,0.2-1.8,0.6c-0.4,0.4-0.6,1.1-0.6,2v7.3
		c0,1.1,0.5,1.7,1.4,1.7h0.6V34h-12.2V28.9z"/>
	<path class="st2" d="M209.7,28.9h0.9c0.6,0,1.1-0.1,1.4-0.4c0.3-0.3,0.4-0.7,0.4-1.3V20c0-1.1-0.6-1.7-1.8-1.7h-0.9v-5.2h10.9v14.1
		c0,1.1,0.6,1.7,1.8,1.7h0.9V34h-13.6V28.9z M214.4,3.5h8.5l-4.9,7.9h-6.8L214.4,3.5z"/>
	<path class="st3" d="M226.1,32c-1.7-1.8-2.6-4.4-2.6-7.8c0-3.8,0.8-6.7,2.5-8.7c1.7-2,4.1-3,7.4-3c1.2,0,2.3,0.1,3.2,0.4
		c0.9,0.3,1.8,0.8,2.7,1.4V12c0-1.1-0.6-1.7-1.8-1.7H237V5.2h9.3v22.3c0,0.6,0.1,1.1,0.3,1.3c0.2,0.2,0.6,0.3,1.2,0.3h0.3V34h-7.1
		l-0.3-2.7c-1,1.1-2.1,1.9-3.3,2.5c-1.2,0.5-2.7,0.8-4.4,0.8C230.2,34.7,227.8,33.8,226.1,32z M237.9,28.6c0.6-1,0.8-2.4,0.8-4v-1.9
		c0-1.8-0.3-3.1-0.8-4.1c-0.6-0.9-1.5-1.4-2.7-1.4c-1.4,0-2.4,0.5-2.9,1.6c-0.5,1.1-0.8,2.8-0.8,5.2c0,1.5,0.1,2.7,0.3,3.6
		c0.2,0.9,0.6,1.5,1.1,1.9s1.3,0.6,2.3,0.6C236.5,30.1,237.4,29.6,237.9,28.6z"/>
	<path class="st4" d="M248.6,28.9h0.9c0.6,0,1.1-0.1,1.4-0.4c0.3-0.3,0.4-0.7,0.4-1.3V20c0-1.1-0.6-1.7-1.8-1.7h-0.9v-5.2h10.9v14.1
		c0,1.1,0.6,1.7,1.8,1.7h0.9V34h-13.6V28.9z M251.3,4.5h8.2v5.9h-8.2V4.5z"/>
	<path class="st5" d="M264.6,33.1c-1.3-1.1-1.9-2.5-1.9-4.4c0-2.2,0.7-3.8,2.2-4.9s3.7-1.7,6.6-1.9l3.8-0.3v-2.3
		c0-1.3-0.7-1.9-2-1.9c-0.8,0-1.4,0.3-2,0.9v1.4h-6.7v-4.6c2.8-1.7,5.8-2.6,9.1-2.6c3.2,0,5.6,0.7,7.3,2.1c1.6,1.4,2.4,3.3,2.4,5.6
		v7.5c0,1,0.5,1.5,1.4,1.5h0.5V34h-6.2l-0.7-2.9c-1.1,1.3-2.2,2.2-3.4,2.8c-1.2,0.5-2.7,0.8-4.6,0.8
		C267.8,34.7,265.9,34.2,264.6,33.1z M275.3,27.1v-1.5l-2.9,0.3c-1.6,0.1-2.4,0.8-2.4,2c0,0.6,0.2,1,0.6,1.4c0.4,0.3,1,0.5,1.7,0.5
		C274.3,29.8,275.3,28.9,275.3,27.1z"/>
</g>
<g>
	<path class="st0" d="M51.5,12.9v-0.8c0.3,0.1,0.6,0.2,0.9,0.2c0.5,0,0.8-0.3,0.8-1V3.6H54v7.7c0,0.6-0.1,1-0.4,1.3
		c-0.3,0.3-0.7,0.5-1.2,0.5C52.1,13.1,51.8,13,51.5,12.9z M53.2,1.8C53.1,1.7,53,1.6,53,1.4c0-0.2,0.1-0.3,0.2-0.4
		c0.1-0.1,0.2-0.2,0.4-0.2c0.2,0,0.3,0.1,0.4,0.2c0.1,0.1,0.2,0.3,0.2,0.4c0,0.2-0.1,0.3-0.2,0.4C53.9,1.9,53.8,2,53.6,2
		C53.4,2,53.3,1.9,53.2,1.8z"/>
	<path class="st0" d="M61.5,10.6c-1,0-1.7-0.3-2.3-1c-0.6-0.7-0.9-1.5-0.9-2.5c0-1,0.3-1.8,0.9-2.5c0.6-0.7,1.3-1,2.3-1
		c1,0,1.8,0.3,2.4,1s0.8,1.5,0.8,2.6c0,1-0.3,1.9-0.9,2.5C63.3,10.3,62.5,10.6,61.5,10.6z M61.5,4.3c-0.7,0-1.3,0.3-1.7,0.8
		c-0.4,0.5-0.6,1.2-0.6,2c0,0.8,0.2,1.4,0.6,1.9c0.4,0.5,1,0.8,1.7,0.8c0.8,0,1.3-0.3,1.7-0.8c0.4-0.5,0.6-1.2,0.6-1.9
		c0-0.8-0.2-1.5-0.6-2C62.9,4.6,62.3,4.3,61.5,4.3z"/>
	<path class="st0" d="M70.9,10.5l-2.4-6.9h0.9l1,2.9l1.1,3.3c0.1-0.3,0.5-1.4,1.1-3.3l1-2.9h0.9L72,10.5H70.9z"/>
	<path class="st0" d="M83.5,9.3v0.8c-0.5,0.3-1.2,0.4-1.9,0.4c-1,0-1.9-0.3-2.5-1s-1-1.5-1-2.5c0-1.1,0.3-2,0.8-2.6
		c0.6-0.6,1.3-1,2.2-1c0.8,0,1.5,0.3,2,0.8c0.5,0.6,0.7,1.3,0.7,2.3c0,0.3,0,0.6-0.1,0.7H79c0.1,0.8,0.3,1.3,0.8,1.7
		c0.5,0.4,1.1,0.6,1.8,0.6C82.4,9.8,83,9.6,83.5,9.3z M83.1,6.6V6.3c0-0.6-0.2-1.1-0.5-1.5c-0.3-0.4-0.8-0.6-1.4-0.6
		c-0.6,0-1.1,0.2-1.5,0.6c-0.4,0.4-0.6,1-0.7,1.8H83.1z"/>
	<path class="st0" d="M89.2,3.6v1.2c0.4-0.9,1.2-1.3,2.2-1.3c0.7,0,1.2,0.2,1.6,0.6s0.6,0.9,0.6,1.6v4.8h-0.8V5.9
		c0-0.5-0.1-0.9-0.4-1.2s-0.6-0.4-1.1-0.4c-0.6,0-1,0.2-1.5,0.6c-0.4,0.4-0.6,1-0.6,1.7v3.8h-0.8V3.6H89.2z"/>
	<path class="st0" d="M101.8,3.8v0.8c-0.4-0.2-1-0.4-1.7-0.4c-0.4,0-0.7,0.1-0.9,0.3c-0.2,0.2-0.3,0.4-0.3,0.7c0,0.2,0,0.3,0.1,0.5
		s0.2,0.3,0.4,0.4c0.2,0.1,0.3,0.2,0.4,0.3c0.1,0.1,0.3,0.1,0.6,0.2c0.6,0.3,1.1,0.5,1.5,0.8c0.3,0.3,0.5,0.7,0.5,1.2
		c0,0.6-0.2,1-0.6,1.4c-0.4,0.3-0.9,0.5-1.6,0.5c-0.8,0-1.5-0.1-2-0.4V9.3c0.6,0.3,1.3,0.5,2,0.5c0.5,0,0.8-0.1,1.1-0.3
		s0.4-0.4,0.4-0.7c0-0.4-0.1-0.6-0.4-0.8c-0.2-0.2-0.7-0.4-1.2-0.6c-0.6-0.2-1-0.5-1.3-0.8S98,5.9,98,5.3c0-0.6,0.2-1,0.6-1.3
		c0.4-0.3,0.9-0.5,1.5-0.5C100.9,3.5,101.4,3.6,101.8,3.8z"/>
</g>
<g>
	<g>
		<g>
			<circle class="st2" cx="24" cy="16.4" r="16.4"/>
		</g>
		<g>
			<circle class="st3" cx="16.4" cy="16.4" r="16.4"/>
		</g>
		<g>
			<circle class="st4" cx="16.4" cy="23.4" r="16.4"/>
		</g>
		<g>
			<circle class="st5" cx="24" cy="23.4" r="16.4"/>
		</g>
	</g>
	<g>
		<circle class="st1" cx="20.2" cy="19.9" r="16.4"/>
	</g>
</g>
</svg>
