<?xml version="1.0" encoding="utf-8"?>
<!-- Generator: Adobe Illustrator 19.1.0, SVG Export Plug-In . SVG Version: 6.00 Build 0)  -->
<svg version="1.1" id="Camada_1" xmlns="http://www.w3.org/2000/svg" xmlns:xlink="http://www.w3.org/1999/xlink" x="0px" y="0px"
	 viewBox="0 0 37.5 36.5" style="enable-background:new 0 0 37.5 36.5;" xml:space="preserve">
<style type="text/css">
	.st0{fill:#F1F1F1;}
	.st1{fill:#4D4D4D;}
</style>
<g>
	<circle class="st0" cx="18.7" cy="18.2" r="17.7"/>
	<path class="st1" d="M27.2,26.3c-0.7,0.7-1.7,0.7-2.4,0l-2.9-2.9c-1.2,0.8-2.6,1.2-4.2,1.2c-4.3,0-7.8-3.5-7.8-7.8S13.4,9,17.7,9
		c4.3,0,7.8,3.5,7.8,7.8c0,1.5-0.5,3-1.2,4.2l2.9,2.9C27.9,24.6,27.9,25.7,27.2,26.3z M17.7,11.3c-3.1,0-5.6,2.5-5.6,5.6
		s2.5,5.6,5.6,5.6c3.1,0,5.6-2.5,5.6-5.6C23.3,13.8,20.8,11.3,17.7,11.3z"/>
</g>
</svg>
