<svg id="Camada_1" data-name="Camada 1" xmlns="http://www.w3.org/2000/svg" viewBox="0 0 340.68 32.58"><defs><style>.cls-1{fill:#808081;}</style></defs><title>Sem título-1</title><path class="cls-1" d="M19.64,8.26V22.55c0,6.19-3.26,10-9.59,10a9.13,9.13,0,0,1-9-6.19L2.33,26A7.79,7.79,0,0,0,10,31.32c5.48,0,8.26-3.26,8.26-8.64V8.26h1.33Z" transform="translate(-1)"/><path class="cls-1" d="M36.3,7.79A12.17,12.17,0,0,1,48.68,20.17,12.17,12.17,0,0,1,36.3,32.54,12.14,12.14,0,0,1,24,20.17,12.14,12.14,0,0,1,36.3,7.79Zm0,23.5A10.82,10.82,0,0,0,47.35,20.17,10.76,10.76,0,0,0,36.3,9a10.71,10.71,0,0,0-11,11.12A10.77,10.77,0,0,0,36.3,31.29Z" transform="translate(-1)"/><path class="cls-1" d="M72.31,8.26L61.63,32.07H60.48L49.8,8.26h1.36l8.5,19C60.2,28.46,61,30.54,61,30.54h0s0.82-2.07,1.36-3.26l8.5-19h1.39Z" transform="translate(-1)"/><path class="cls-1" d="M91.39,30.81v1.26H76V8.26H91.18V9.52H77.31V18.6H88.56v1.22H77.31v11H91.39Z" transform="translate(-1)"/><path class="cls-1" d="M115.39,8.26v23.8h-1.22L100.77,14c-2-2.75-2.65-3.74-2.69-3.74h0s0.07,2.62.07,5.68V32.07H96.83V8.26h1.22l13.33,17.92c1.94,2.58,2.75,3.74,2.79,3.74h0s-0.1-2.65-.1-5.65v-16h1.29Z" transform="translate(-1)"/><path class="cls-1" d="M135.59,14.42C135.08,11.09,132.33,9,128.72,9c-3.84,0-6.67,1.8-6.67,4.93s3.78,4,7.07,4.93,8.13,2.07,8.13,7c0,3.84-3.33,6.7-8.4,6.7s-8.23-3.13-8.57-6.94l1.26-.34c0.2,3.26,2.79,6.05,7.31,6.05,4.32,0,7.07-2.31,7.07-5.47,0-4.29-4.79-5.1-8.13-6-2.69-.75-7.07-1.8-7.07-5.88,0-3.71,3.4-6.16,8-6.16,4.22,0,7.48,2.41,8.13,6.29Z" transform="translate(-1)"/><path class="cls-1" d="M164.41,8.26v23.8H158.8V26.25c0-5.64.2-8.43,0.17-8.43h0s-1.94,3.26-2.14,3.6L154,26.19h-3l-2.79-4.76c-0.2-.34-2.11-3.6-2.14-3.6h0s0.17,2.79.17,8.43v5.82h-5.61V8.26H146l4.45,7.21c1.73,2.82,2,3.43,2,3.43h0s0.31-.61,2-3.43L159,8.26h5.37Z" transform="translate(-1)"/><path class="cls-1" d="M189.78,8.26V21.49c0,7.14-4.22,11.05-10.51,11.05s-10.51-3.91-10.51-11.05V8.26h5.71V21.36c0,4.08,1.67,5.85,4.79,5.85s4.79-1.77,4.79-5.85V8.26h5.71Z" transform="translate(-1)"/><path class="cls-1" d="M211.1,26.73v5.34h-17V8.26h5.71V26.73H211.1Z" transform="translate(-1)"/><path class="cls-1" d="M229.16,8.26V13.6h-7.24V32.07H216.2V13.6h-7.14V8.26h20.1Z" transform="translate(-1)"/><path class="cls-1" d="M232.15,32.07V8.26h5.71v23.8h-5.71Z" transform="translate(-1)"/><path class="cls-1" d="M266.94,8.26v23.8h-5.61V26.25c0-5.64.2-8.43,0.17-8.43h0s-1.94,3.26-2.14,3.6l-2.79,4.76h-3l-2.79-4.76c-0.2-.34-2.11-3.6-2.14-3.6h0s0.17,2.79.17,8.43v5.82h-5.61V8.26h5.37L253,15.47c1.73,2.82,2,3.43,2,3.43h0s0.31-.61,2-3.43l4.45-7.21h5.37Z" transform="translate(-1)"/><path class="cls-1" d="M280.91,3.84l-8.43,3.5-1.63-3L279,0Zm-8.67,28.23V8.26H278v23.8h-5.71Z" transform="translate(-1)"/><path class="cls-1" d="M293.66,8.26c6.8,0,12.31,4.86,12.31,12s-5.51,11.8-12.31,11.8H283.26V8.26h10.41Zm0,18.47A6.17,6.17,0,0,0,300,20.27a6.34,6.34,0,0,0-6.36-6.67H289V26.73h4.69Z" transform="translate(-1)"/><path class="cls-1" d="M309.54,32.07V8.26h5.71v23.8h-5.71Z" transform="translate(-1)"/><path class="cls-1" d="M334.16,28.33h-9.42l-1.36,3.74h-6.16l9.52-23.8h5.41l9.52,23.8h-6.16Zm-1.84-5-1.7-4.62c-0.51-1.36-1.12-3.5-1.16-3.5h0s-0.65,2.14-1.16,3.5l-1.7,4.62h5.75Z" transform="translate(-1)"/></svg>